<?xml version="1.0" standalone="no"?>
<!DOCTYPE svg PUBLIC "-//W3C//DTD SVG 20010904//EN"
 "http://www.w3.org/TR/2001/REC-SVG-20010904/DTD/svg10.dtd">
<svg version="1.0" xmlns="http://www.w3.org/2000/svg"
 width="225.000000pt" height="225.000000pt" viewBox="0 0 225.000000 225.000000"
 preserveAspectRatio="xMidYMid meet">

<g transform="translate(0.000000,225.000000) scale(0.100000,-0.100000)"
fill="#000000" stroke="none">
<path d="M210 1623 c-8 -3 -18 -11 -22 -17 -4 -6 -8 -110 -8 -231 -1 -334 -19
-465 -85 -601 -22 -45 -30 -72 -24 -79 15 -15 38 5 81 66 82 119 101 217 113
594 4 105 9 200 12 212 3 14 -3 29 -16 42 -22 22 -26 23 -51 14z"/>
<path d="M2090 1615 c-10 -12 -48 -15 -222 -15 -177 0 -210 -2 -214 -15 -14
-34 14 -45 117 -45 l99 0 0 -273 c0 -199 3 -276 12 -285 18 -18 56 -14 68 7 6
12 10 121 10 285 l0 266 89 0 c94 0 121 11 121 49 0 38 -55 56 -80 26z"/>
<path d="M465 1598 c-3 -13 -4 -158 -3 -323 l3 -300 29 -3 c16 -2 33 1 39 7 7
7 70 11 172 11 166 0 185 4 185 42 0 22 -42 50 -64 42 -9 -3 -16 -10 -16 -15
0 -5 -61 -9 -135 -9 l-135 0 -2 283 -3 282 -32 3 c-27 3 -33 -1 -38 -20z"/>
<path d="M1025 1607 c-3 -7 -4 -152 -3 -322 l3 -310 29 -3 c16 -2 32 2 37 10
5 7 9 68 9 136 l0 122 178 0 c115 0 182 -4 189 -11 6 -6 21 -9 34 -7 l24 3 0
195 0 195 -35 -3 c-103 -10 -384 -12 -394 -2 -14 14 -66 13 -71 -3z m425 -182
l0 -125 -175 0 -175 0 0 125 0 125 175 0 175 0 0 -125z"/>
<path d="M1242 1473 c-22 -9 -33 -50 -20 -78 22 -49 101 -42 114 10 13 52 -39
90 -94 68z"/>
<path d="M1466 904 c-3 -9 -6 -27 -6 -40 0 -22 -4 -24 -45 -24 -25 0 -45 -4
-45 -10 0 -5 21 -10 46 -10 l47 0 -6 -54 c-6 -60 -27 -108 -65 -148 -28 -30
-20 -37 15 -13 35 25 61 76 74 148 l12 67 40 0 40 0 -7 -77 c-8 -102 -14 -121
-37 -125 -14 -2 -16 -7 -9 -18 7 -12 14 -12 27 -4 28 17 42 71 42 165 l1 86
-50 -5 -50 -5 0 36 c0 39 -14 57 -24 31z"/>
<path d="M274 901 c-9 -9 -4 -310 6 -316 6 -3 10 -1 10 4 0 15 133 14 148 -1
19 -19 23 9 20 166 l-3 148 -88 1 c-49 1 -91 0 -93 -2z m166 -151 l0 -130 -75
0 -75 0 0 130 0 130 75 0 75 0 0 -130z"/>
<path d="M344 776 c-11 -28 0 -61 21 -61 16 0 20 7 20 35 0 25 -5 36 -18 38
-9 2 -20 -3 -23 -12z"/>
<path d="M610 881 c0 -31 0 -31 -55 -31 -30 0 -55 -4 -55 -10 0 -5 23 -10 50
-10 28 0 50 -2 50 -5 0 -12 -34 -72 -66 -118 -19 -26 -34 -50 -34 -54 0 -14
72 63 90 97 l19 35 1 -47 c0 -45 -2 -48 -25 -48 -14 0 -25 -4 -25 -10 0 -5 11
-10 24 -10 22 0 25 -5 28 -42 4 -54 22 -52 26 2 3 32 7 40 23 40 11 0 19 7 19
16 0 11 -6 13 -19 9 -16 -5 -19 1 -23 42 -3 26 -4 49 -2 51 1 2 11 -17 23 -41
29 -59 64 -92 86 -79 15 8 13 12 -14 31 -30 22 -81 96 -81 119 0 7 17 12 45
12 31 0 45 4 45 14 0 10 -12 12 -49 8 -48 -4 -50 -4 -53 24 -4 39 -28 44 -28
5z"/>
<path d="M865 901 c-6 -5 -23 -11 -40 -14 -24 -3 -21 -4 13 -6 31 -1 42 3 42
14 0 17 -3 18 -15 6z"/>
<path d="M1130 884 c-6 -14 -10 -29 -10 -33 0 -5 -9 -11 -20 -14 -22 -6 -28
-27 -7 -27 6 0 28 4 47 10 22 6 38 6 44 0 14 -14 26 -12 26 3 0 14 -31 47 -43
47 -3 0 -4 -7 -1 -15 4 -11 0 -15 -16 -15 -21 0 -22 1 -6 25 18 28 21 45 6 45
-6 0 -15 -12 -20 -26z"/>
<path d="M1222 838 l3 -73 53 -3 c40 -2 52 0 52 11 0 8 -7 17 -15 21 -8 3 -15
1 -15 -5 0 -6 -12 -9 -27 -7 -20 2 -29 9 -31 25 -2 16 4 24 32 33 20 6 36 18
36 26 0 18 -11 18 -36 -1 -28 -21 -34 -18 -34 15 0 17 -5 30 -10 30 -7 0 -10
-27 -8 -72z"/>
<path d="M1717 904 c-3 -4 -21 -10 -39 -14 -33 -8 -33 -8 10 -9 31 -1 42 3 42
14 0 16 -3 18 -13 9z"/>
<path d="M1810 870 c0 -38 -2 -40 -29 -40 -17 0 -33 -4 -36 -10 -4 -6 8 -10
29 -10 29 0 36 -4 36 -19 0 -20 -18 -31 -51 -31 -10 0 -19 -4 -19 -10 0 -5 7
-10 15 -10 11 0 15 -11 15 -39 0 -25 -5 -41 -15 -45 -15 -5 -21 -36 -7 -36 4
0 23 14 42 30 27 22 31 30 17 30 -14 0 -18 7 -15 32 4 46 24 46 30 0 10 -69
54 -140 74 -119 9 8 -6 48 -16 42 -11 -7 -36 61 -45 123 l-7 52 31 0 c19 0 31
5 31 13 0 9 -10 12 -30 9 -29 -4 -30 -3 -30 37 0 22 -4 41 -10 41 -5 0 -10
-18 -10 -40z"/>
<path d="M2024 899 c-4 -7 -21 -9 -40 -6 l-34 6 0 -95 0 -94 40 6 c33 5 40 4
40 -10 0 -10 -4 -15 -9 -12 -17 11 -39 -5 -34 -25 3 -10 10 -19 15 -19 5 0 6
10 2 22 -6 20 -5 21 9 6 18 -18 12 -58 -9 -58 -8 0 -11 -6 -8 -15 18 -47 54
17 54 97 0 31 -3 35 -20 31 -15 -4 -20 0 -20 15 0 12 8 22 21 25 12 3 18 10
15 15 -8 13 17 22 43 15 29 -7 28 -35 -1 -31 -20 3 -23 -2 -26 -40 -3 -41 -2
-43 19 -37 20 7 21 5 15 -21 -4 -16 -19 -41 -33 -56 -15 -15 -24 -30 -21 -33
9 -10 55 34 68 65 l13 31 18 -41 c10 -22 25 -40 33 -40 24 0 28 18 6 30 -11 6
-27 25 -36 42 l-16 31 27 -7 c26 -7 26 -6 23 36 -3 38 -6 43 -25 40 -26 -4
-30 12 -10 33 9 8 19 10 30 4 36 -21 25 13 -20 57 -26 27 -49 42 -51 35 -8
-23 -67 -105 -79 -109 -7 -2 -13 3 -13 12 0 9 7 16 15 16 8 0 15 7 15 15 0 9
-6 12 -15 9 -10 -4 -15 0 -15 15 0 14 6 21 20 21 11 0 20 7 20 15 0 18 -16 20
-26 4z m-34 -39 c0 -11 -4 -20 -10 -20 -5 0 -10 9 -10 20 0 11 5 20 10 20 6 0
10 -9 10 -20z m147 -32 c-7 -4 -22 -8 -34 -8 -22 0 -22 1 -5 30 l17 30 17 -23
c12 -16 14 -24 5 -29z m-147 -23 c0 -8 -4 -15 -10 -15 -5 0 -10 7 -10 15 0 8
5 15 10 15 6 0 10 -7 10 -15z m0 -55 c0 -11 -4 -20 -10 -20 -5 0 -10 9 -10 20
0 11 5 20 10 20 6 0 10 -9 10 -20z m120 -16 c0 -8 -7 -14 -15 -14 -15 0 -21
21 -9 33 10 9 24 -2 24 -19z m50 1 c0 -8 -8 -15 -18 -15 -10 0 -19 7 -19 15 0
8 9 15 19 15 10 0 18 -7 18 -15z"/>
<path d="M955 890 c-33 -4 -50 -7 -37 -8 15 -1 22 -8 22 -22 0 -12 -10 -24
-22 -30 -18 -7 -19 -9 -5 -9 27 -1 24 -61 -3 -61 -11 0 -20 -5 -20 -10 0 -17
152 -8 158 9 3 9 -2 11 -17 6 -19 -6 -21 -3 -21 35 0 40 -1 42 -26 36 -22 -6
-25 -4 -22 16 2 18 10 24 36 26 17 2 32 7 32 13 0 5 -3 8 -7 7 -5 -1 -35 -4
-68 -8z m35 -100 c0 -23 -4 -30 -20 -30 -16 0 -20 7 -20 30 0 23 4 30 20 30
16 0 20 -7 20 -30z"/>
<path d="M1850 870 c6 -11 15 -18 21 -14 6 4 6 11 -2 20 -17 21 -31 17 -19 -6z"/>
<path d="M833 853 c-60 -6 -54 -23 7 -23 38 0 50 4 50 15 0 8 -3 14 -7 13 -5
-1 -27 -3 -50 -5z"/>
<path d="M1683 853 c-60 -6 -54 -23 7 -23 38 0 50 4 50 15 0 8 -3 14 -7 13 -5
-1 -27 -3 -50 -5z"/>
<path d="M830 800 l-35 -7 43 -2 c23 0 42 4 42 9 0 6 -3 9 -7 9 -5 -1 -24 -5
-43 -9z"/>
<path d="M1680 800 l-35 -7 43 -2 c23 0 42 4 42 9 0 6 -3 9 -7 9 -5 -1 -24 -5
-43 -9z"/>
<path d="M1100 685 c0 -63 4 -105 10 -105 6 0 10 18 10 40 0 36 3 40 25 40 18
0 25 -5 25 -19 0 -11 -6 -21 -12 -24 -10 -3 -10 -7 1 -20 24 -30 31 -8 31 94
l0 99 -45 0 -45 0 0 -105z m70 65 c0 -15 -7 -20 -25 -20 -18 0 -25 5 -25 20 0
15 7 20 25 20 18 0 25 -5 25 -20z m0 -50 c0 -15 -7 -20 -25 -20 -18 0 -25 5
-25 20 0 15 7 20 25 20 18 0 25 -5 25 -20z"/>
<path d="M833 763 c-47 -6 -41 -23 7 -23 29 0 40 4 40 15 0 8 -3 14 -7 13 -5
0 -23 -3 -40 -5z"/>
<path d="M1683 763 c-18 -2 -33 -9 -33 -14 0 -15 73 -6 78 9 2 6 0 11 -5 10
-4 0 -23 -3 -40 -5z"/>
<path d="M1222 668 l3 -83 44 -3 c53 -4 73 11 48 35 -11 11 -17 13 -17 5 0 -7
-13 -12 -30 -12 -26 0 -30 4 -30 28 0 22 7 32 32 43 34 15 49 39 25 39 -8 0
-20 -7 -27 -15 -19 -23 -30 -18 -30 15 0 17 -5 30 -10 30 -7 0 -10 -30 -8 -82z"/>
<path d="M920 646 c0 -60 2 -67 15 -56 9 8 29 10 51 7 l35 -6 -3 61 -3 61 -48
1 -47 1 0 -69z m80 9 c0 -32 -2 -35 -30 -35 -28 0 -30 3 -30 35 0 32 2 35 30
35 28 0 30 -3 30 -35z"/>
<path d="M800 645 c0 -37 4 -65 10 -65 6 0 10 5 10 11 0 7 11 9 30 6 l30 -6 0
59 0 60 -40 0 -40 0 0 -65z m60 10 c0 -28 -4 -35 -20 -35 -16 0 -20 7 -20 35
0 28 4 35 20 35 16 0 20 -7 20 -35z"/>
<path d="M1650 645 c0 -37 4 -65 10 -65 6 0 10 5 10 11 0 7 11 9 30 6 l30 -6
0 59 0 60 -40 0 -40 0 0 -65z m60 10 c0 -28 -4 -35 -20 -35 -16 0 -20 7 -20
35 0 28 4 35 20 35 16 0 20 -7 20 -35z"/>
<path d="M1960 678 c0 -7 5 -20 10 -28 8 -12 10 -11 10 7 0 12 -4 25 -10 28
-5 3 -10 0 -10 -7z"/>
<path d="M1937 658 c-9 -31 -9 -38 2 -38 12 0 20 35 11 50 -5 8 -9 4 -13 -12z"/>
</g>
</svg>
