<svg xmlns="http://www.w3.org/2000/svg" xmlns:xlink="http://www.w3.org/1999/xlink" width="377" zoomAndPan="magnify" viewBox="0 0 282.75 391.499984" height="522" preserveAspectRatio="xMidYMid meet" version="1.0"><defs><clipPath id="2d170ad5d8"><path d="M 0.0546875 0 L 281.695312 0 L 281.695312 390.25 L 0.0546875 390.25 Z M 0.0546875 0 " clip-rule="nonzero"/></clipPath><clipPath id="cc3b07f636"><path d="M 0.0546875 0 L 281.695312 0 L 281.695312 390.25 L 0.0546875 390.25 Z M 0.0546875 0 " clip-rule="nonzero"/></clipPath></defs><path fill="#f44051" d="M 134.511719 12.203125 C 34.910156 17.082031 -22.117188 127.992188 31.914062 211.882812 L 134.273438 370.851562 C 142.789062 384.070312 162.464844 383.128906 169.6875 369.148438 L 256.132812 200.957031 C 301.707031 112.191406 234.171875 7.328125 134.511719 12.203125 Z M 134.511719 12.203125 " fill-opacity="1" fill-rule="nonzero"/><g clip-path="url(#2d170ad5d8)"><path stroke-linecap="round" transform="matrix(5.872717, 0, 0, 5.874632, 2.25642, 3.216286)" fill="none" stroke-linejoin="miter" d="M 22.520291 1.52977 C 5.560243 2.360275 -4.150312 21.239781 5.050072 35.51993 L 22.479717 62.580134 C 23.929748 64.830275 27.280119 64.670025 28.509985 62.290222 L 43.229801 33.660106 C 50.99013 18.550118 39.490316 0.699931 22.520291 1.52977 Z M 22.520291 1.52977 " stroke="#1d1d1b" stroke-width="3" stroke-opacity="1" stroke-miterlimit="10"/></g><path fill="#ffffff" d="M 200.109375 153.429688 C 200.109375 155.371094 200.011719 157.308594 199.824219 159.242188 C 199.632812 161.171875 199.347656 163.089844 198.96875 164.996094 C 198.589844 166.898438 198.121094 168.78125 197.558594 170.636719 C 196.992188 172.496094 196.339844 174.320312 195.597656 176.113281 C 194.855469 177.90625 194.027344 179.660156 193.113281 181.371094 C 192.195312 183.085938 191.199219 184.746094 190.121094 186.363281 C 189.042969 187.976562 187.890625 189.535156 186.65625 191.035156 C 185.425781 192.535156 184.125 193.972656 182.753906 195.34375 C 181.378906 196.71875 179.945312 198.019531 178.445312 199.25 C 176.945312 200.480469 175.386719 201.636719 173.773438 202.714844 C 172.160156 203.792969 170.496094 204.792969 168.785156 205.707031 C 167.074219 206.621094 165.320312 207.449219 163.527344 208.195312 C 161.734375 208.9375 159.910156 209.589844 158.054688 210.152344 C 156.195312 210.71875 154.316406 211.1875 152.414062 211.566406 C 150.507812 211.945312 148.59375 212.230469 146.660156 212.421875 C 144.730469 212.609375 142.792969 212.707031 140.851562 212.707031 C 138.910156 212.707031 136.976562 212.609375 135.042969 212.421875 C 133.113281 212.230469 131.195312 211.945312 129.292969 211.566406 C 127.390625 211.1875 125.507812 210.71875 123.652344 210.152344 C 121.792969 209.589844 119.96875 208.9375 118.175781 208.195312 C 116.382812 207.449219 114.632812 206.621094 112.917969 205.707031 C 111.207031 204.792969 109.546875 203.792969 107.933594 202.714844 C 106.316406 201.636719 104.761719 200.480469 103.261719 199.25 C 101.761719 198.019531 100.324219 196.71875 98.953125 195.34375 C 97.582031 193.972656 96.277344 192.535156 95.046875 191.035156 C 93.816406 189.535156 92.660156 187.976562 91.582031 186.363281 C 90.503906 184.746094 89.507812 183.085938 88.59375 181.371094 C 87.679688 179.660156 86.851562 177.90625 86.105469 176.113281 C 85.363281 174.320312 84.710938 172.496094 84.148438 170.636719 C 83.585938 168.78125 83.113281 166.898438 82.734375 164.996094 C 82.355469 163.089844 82.074219 161.171875 81.882812 159.242188 C 81.691406 157.308594 81.597656 155.371094 81.597656 153.429688 C 81.597656 151.488281 81.691406 149.550781 81.882812 147.621094 C 82.074219 145.6875 82.355469 143.769531 82.734375 141.867188 C 83.113281 139.960938 83.585938 138.082031 84.148438 136.222656 C 84.710938 134.367188 85.363281 132.539062 86.105469 130.746094 C 86.851562 128.953125 87.679688 127.199219 88.59375 125.488281 C 89.507812 123.777344 90.503906 122.113281 91.582031 120.5 C 92.660156 118.886719 93.816406 117.328125 95.046875 115.828125 C 96.277344 114.328125 97.582031 112.890625 98.953125 111.515625 C 100.324219 110.144531 101.761719 108.84375 103.261719 107.609375 C 104.761719 106.378906 106.316406 105.222656 107.933594 104.144531 C 109.546875 103.066406 111.207031 102.070312 112.917969 101.15625 C 114.632812 100.238281 116.382812 99.410156 118.175781 98.667969 C 119.96875 97.925781 121.792969 97.273438 123.652344 96.707031 C 125.507812 96.144531 127.390625 95.671875 129.292969 95.292969 C 131.195312 94.914062 133.113281 94.632812 135.042969 94.441406 C 136.976562 94.25 138.910156 94.15625 140.851562 94.15625 C 142.792969 94.15625 144.730469 94.25 146.660156 94.441406 C 148.59375 94.632812 150.507812 94.914062 152.414062 95.292969 C 154.316406 95.671875 156.195312 96.144531 158.054688 96.707031 C 159.910156 97.273438 161.734375 97.925781 163.527344 98.667969 C 165.320312 99.410156 167.074219 100.238281 168.785156 101.15625 C 170.496094 102.070312 172.160156 103.066406 173.773438 104.144531 C 175.386719 105.222656 176.945312 106.378906 178.445312 107.609375 C 179.945312 108.84375 181.378906 110.144531 182.753906 111.515625 C 184.125 112.890625 185.425781 114.328125 186.65625 115.828125 C 187.890625 117.328125 189.042969 118.886719 190.121094 120.5 C 191.199219 122.113281 192.195312 123.777344 193.113281 125.488281 C 194.027344 127.199219 194.855469 128.953125 195.597656 130.746094 C 196.339844 132.539062 196.992188 134.367188 197.558594 136.222656 C 198.121094 138.082031 198.589844 139.960938 198.96875 141.867188 C 199.347656 143.769531 199.632812 145.6875 199.824219 147.621094 C 200.011719 149.550781 200.109375 151.488281 200.109375 153.429688 Z M 200.109375 153.429688 " fill-opacity="1" fill-rule="nonzero"/><g clip-path="url(#cc3b07f636)"><path stroke-linecap="round" transform="matrix(5.872717, 0, 0, 5.874632, 2.25642, 3.216286)" fill="none" stroke-linejoin="miter" d="M 33.69019 25.569839 C 33.69019 25.900312 33.673561 26.23012 33.641634 26.559263 C 33.609041 26.887741 33.560485 27.214224 33.495965 27.538712 C 33.431446 27.862536 33.351627 28.183034 33.255845 28.498879 C 33.159398 28.815388 33.048318 29.125913 32.921939 29.431118 C 32.79556 29.736323 32.654548 30.034879 32.498902 30.326121 C 32.342592 30.618027 32.172978 30.900625 31.989396 31.175908 C 31.805814 31.450526 31.609594 31.715835 31.399406 31.97117 C 31.189883 32.226506 30.968387 32.471202 30.734919 32.704594 C 30.500786 32.938651 30.256675 33.160075 30.001256 33.369529 C 29.745838 33.578984 29.480442 33.775805 29.205734 33.959327 C 28.931027 34.142849 28.647672 34.313072 28.356335 34.468667 C 28.064999 34.624262 27.766345 34.765228 27.461041 34.892231 C 27.155736 35.018569 26.84511 35.129613 26.529163 35.225363 C 26.21255 35.321779 25.892612 35.401571 25.568683 35.46607 C 25.244089 35.530569 24.918164 35.579109 24.588914 35.611691 C 24.260329 35.643608 23.930413 35.660231 23.599833 35.660231 C 23.269252 35.660231 22.940002 35.643608 22.610752 35.611691 C 22.282167 35.579109 21.955577 35.530569 21.631648 35.46607 C 21.307719 35.401571 20.987115 35.321779 20.671168 35.225363 C 20.354556 35.129613 20.04393 35.018569 19.738625 34.892231 C 19.43332 34.765228 19.135332 34.624262 18.84333 34.468667 C 18.551994 34.313072 18.269304 34.142849 17.994596 33.959327 C 17.719223 33.775805 17.454493 33.578984 17.199074 33.369529 C 16.943656 33.160075 16.69888 32.938651 16.465412 32.704594 C 16.231943 32.471202 16.009782 32.226506 15.80026 31.97117 C 15.590737 31.715835 15.393852 31.450526 15.21027 31.175908 C 15.026688 30.900625 14.857074 30.618027 14.701428 30.326121 C 14.545783 30.034879 14.40477 29.736323 14.277726 29.431118 C 14.151348 29.125913 14.040267 28.815388 13.944485 28.498879 C 13.848703 28.183034 13.76822 27.862536 13.7037 27.538712 C 13.63918 27.214224 13.59129 26.887741 13.558697 26.559263 C 13.526105 26.23012 13.510141 25.900312 13.510141 25.569839 C 13.510141 25.239366 13.526105 24.909558 13.558697 24.58108 C 13.59129 24.251937 13.63918 23.925454 13.7037 23.601631 C 13.76822 23.277142 13.848703 22.957308 13.944485 22.640799 C 14.040267 22.324955 14.151348 22.013765 14.277726 21.70856 C 14.40477 21.403355 14.545783 21.104799 14.701428 20.813557 C 14.857074 20.522316 15.026688 20.239053 15.21027 19.964435 C 15.393852 19.689817 15.590737 19.424507 15.80026 19.169172 C 16.009782 18.913837 16.231943 18.669141 16.465412 18.435084 C 16.69888 18.201692 16.943656 17.980268 17.199074 17.770149 C 17.454493 17.560694 17.719223 17.363873 17.994596 17.180351 C 18.269304 16.996829 18.551994 16.82727 18.84333 16.671676 C 19.135332 16.515416 19.43332 16.37445 19.738625 16.248112 C 20.04393 16.121774 20.354556 16.01073 20.671168 15.914314 C 20.987115 15.818564 21.307719 15.738107 21.631648 15.673608 C 21.955577 15.609109 22.282167 15.561234 22.610752 15.528652 C 22.940002 15.49607 23.269252 15.480112 23.599833 15.480112 C 23.930413 15.480112 24.260329 15.49607 24.588914 15.528652 C 24.918164 15.561234 25.244089 15.609109 25.568683 15.673608 C 25.892612 15.738107 26.21255 15.818564 26.529163 15.914314 C 26.84511 16.01073 27.155736 16.121774 27.461041 16.248112 C 27.766345 16.37445 28.064999 16.515416 28.356335 16.671676 C 28.647672 16.82727 28.931027 16.996829 29.205734 17.180351 C 29.480442 17.363873 29.745838 17.560694 30.001256 17.770149 C 30.256675 17.980268 30.500786 18.201692 30.734919 18.435084 C 30.968387 18.669141 31.189883 18.913837 31.399406 19.169172 C 31.609594 19.424507 31.805814 19.689817 31.989396 19.964435 C 32.172978 20.239053 32.342592 20.522316 32.498902 20.813557 C 32.654548 21.104799 32.79556 21.403355 32.921939 21.70856 C 33.048318 22.013765 33.159398 22.324955 33.255845 22.640799 C 33.351627 22.957308 33.431446 23.277142 33.495965 23.601631 C 33.560485 23.925454 33.609041 24.251937 33.641634 24.58108 C 33.673561 24.909558 33.69019 25.239366 33.69019 25.569839 Z M 33.69019 25.569839 " stroke="#1d1d1b" stroke-width="3" stroke-opacity="1" stroke-miterlimit="10"/></g></svg>