<?xml version="1.0" encoding="utf-8"?>
<!-- Generator: Adobe Illustrator 26.0.3, SVG Export Plug-In . SVG Version: 6.00 Build 0)  -->
<svg version="1.0" id="Layer_1" xmlns="http://www.w3.org/2000/svg" xmlns:xlink="http://www.w3.org/1999/xlink" x="0px" y="0px"
	 viewBox="0 0 991 676.3" style="enable-background:new 0 0 991 676.3;" xml:space="preserve">
<style type="text/css">
	.st0{fill:#DC2D27;}
	.st1{fill:#FFFFFF;}
</style>
<path class="st0" d="M491.3,526H867V150.3H491.3V526z"/>
<path d="M124,526h375.7V150.3H124V526z"/>
<path class="st1" d="M571.5,281.5l5.2,3c2.3,1.3,4.3,2.6,4.3,5.3c0,3.3-2.4,5.2-6.6,5.2H574c-2.6,0-4.5-0.2-6.5-1.9l-0.4-0.3v3.7
	l0.2,0.1c1.8,0.7,3.8,0.9,5.8,0.8h1.2c2.3,0,6.6-0.4,9-2.9c1.3-1.4,2-3.3,1.8-5.2c-0.2-4.5-2.6-5.8-5.6-7.5c-0.3-0.2-0.7-0.4-1-0.6
	l-4.6-2.6c-1.9-1.1-3.1-2.1-3.2-4c-0.1-1.1,0.3-2.1,1-2.9c1.2-1.2,2.9-1.9,4.6-1.9h0.4c1.9-0.1,3.8,0.6,5.3,1.9l0.4,0.4v-3.7
	l-0.2-0.1c-1.6-0.6-3.2-0.9-4.9-0.8H576c-2.7-0.1-5.2,0.9-7.2,2.7c-1.2,1.2-1.9,2.9-1.9,4.6C566.9,277.6,568.3,279.6,571.5,281.5
	 M586.5,269.1c0.2,0.3,0.4,0.6,0.5,1l10.3,27.9l7.4-20.4l7.3,19.5l0.2,0.6l9.8-27.2c0.1-0.3,0.2-0.5,0.4-0.8l0.2-0.3
	c0.3-0.5,0.6-0.9,1-1.4l0.3-0.4h-5.2l0.2,0.4c0.2,0.3,0.3,0.6,0.3,0.9c0,0.4-0.1,0.9-0.3,1.2l-6.3,18.7l-6.8-18.9
	c-0.2-0.4-0.2-0.8-0.1-1.3c0.1-0.2,0.1-0.5,0.3-0.7l0.2-0.4H600l0.4,0.4c0.3,0.3,0.5,0.6,0.8,0.9l0.2,0.3c0.2,0.2,0.4,0.5,0.5,0.8
	l1.4,3.5l-5.7,15.3l-6.8-19.3c-0.1-0.2-0.1-0.5,0-0.7c0-0.3,0.2-0.5,0.3-0.7l0.2-0.4h-6.6l0.8,0.5
	C585.9,268.4,586.2,268.7,586.5,269.1 M627.4,269.4c0.2,0.5,0.2,0.9,0.2,1.4v23.3c0,0.8-0.2,1.6-0.6,2.3l-0.2,0.4h5.3l-0.2-0.4
	c-0.1-0.1-0.1-0.2-0.2-0.3c-0.1-0.2-0.3-0.4-0.3-0.6c-0.1-1.2-0.1-2.5-0.1-3.7v-21c0-0.5,0.1-1,0.2-1.5v0c0.1-0.3,0.3-0.7,0.4-1
	l0.2-0.4h-5.5l0.2,0.4C627,268.6,627.2,269.1,627.4,269.4 M637.4,269.1c0.2,0.3,0.3,0.7,0.3,1.1v23.9c0,0.5,0,1-0.2,1.5
	c-0.1,0.3-0.2,0.7-0.5,0.9l-0.3,0.4h4.4l-0.2-0.6c-0.1-0.3-0.2-0.6-0.2-0.9c-0.2-0.7-0.3-1.4-0.3-2.1v-20.7l22.7,25.1l0.4,0.5
	l0-27.4c0-0.5,0-1,0.1-1.5c0.1-0.4,0.2-0.8,0.3-1.2l0.1-0.3h-3.9l0.1,0.3c0.1,0.4,0.2,0.7,0.3,1.1c0.2,1,0.2,1.9,0.2,2.9v18.2
	l-19.7-22.5h-5.2l0.8,0.5C637,268.4,637.2,268.7,637.4,269.1 M668.6,269.2c0.2,0.5,0.4,1,0.4,1.6v23.6c0,0.5-0.1,0.9-0.2,1.4v0.1
	c-0.1,0.2-0.2,0.5-0.4,0.7l-0.3,0.4h8.1c5.9,0,9.7-3.2,9.7-8.4c0-3.8-1.7-6.3-5.1-7.4l-0.7-0.2l0.6-0.4c2.1-1,3.4-3.2,3.2-5.6
	c-0.1-3.8-3.2-7-7-7.1h-9.1l0.3,0.4C668.4,268.5,668.6,268.8,668.6,269.2 M675,282.3c4.8,0.1,7.3,2.2,7.4,6.1s-3.5,6-7.1,6.2
	c-0.9,0.1-1.7,0-2.5-0.3v-11.9C673.5,282.3,674.2,282.3,675,282.3 M674.8,280h-2.3v-9.9h2.6c3.2,0,5.3,1.8,5.4,4.7
	c0.1,1.3-0.3,2.6-1.2,3.6C678,279.5,676.4,280.1,674.8,280 M690.5,269.5c0,0.3,0.1,0.6,0,0.9c0,0.1,0,0.3,0,0.4v16.4
	c0,5.7,4.9,10,11.5,10h0.2c6.2-0.1,10.8-4.4,10.8-9.9v-17.1c0-0.7,0.1-1.5,0.3-2.2l0.1-0.3h-4.7l0.1,0.3c0.1,0.4,0.3,0.8,0.4,1.2v0
	c0.1,0.5,0.1,0.9,0.1,1.4v16.4c0.1,3.9-3.1,7.2-7,7.2c-0.1,0-0.1,0-0.2,0H702c-4.2,0.1-7.7-3.2-7.8-7.4v-16.7c0-0.3,0-0.7,0.1-1
	c0-0.4,0.1-0.8,0.3-1.1l0.2-0.3H690l0.1,0.3C690.3,268.6,690.4,269.1,690.5,269.5 M717.8,268.4c0.2,0.3,0.3,0.5,0.3,0.8
	c0.2,0.9,0.2,1.8,0.2,2.7v20.5c0,1,0,1.9-0.1,2.9c0,0.3-0.1,0.6-0.3,0.8l-0.2,0.3l-0.2,0.4h5l-0.2-0.6c-0.1-0.3-0.2-0.7-0.3-1
	c-0.1-0.4-0.1-0.9-0.1-1.3V281c0,0,0.1,0.1,0.1,0.1c0.2,0.1,0.3,0.3,0.4,0.5c0.1,0.1,0.2,0.2,0.3,0.4l11.5,15l0.1,0.1h5.4l-0.6-0.4
	c-0.6-0.4-0.9-0.7-1.4-1.1c-0.8-0.8-1.6-1.7-2.3-2.6l-7-8.8c-0.6-0.8-1.3-1.5-2-2.2h0c0.1,0,0.2,0,0.3,0c3.9-0.1,7-3.2,7-7
	c0.1-1.7-0.5-3.4-1.8-4.7c-1.4-1.5-3.4-2.3-5.5-2.3h-9l0.2,0.4L717.8,268.4L717.8,268.4z M722,270.4c0.9-0.4,1.8-0.5,2.8-0.5
	c4.4,0.2,5.2,2.4,5.3,4.7c0.2,3-2,5-5.8,5.3c-0.7,0-1.5,0-2.2,0L722,270.4z M741.5,269.1c0.2,0.3,0.3,0.7,0.3,1.1v23.9
	c0,0.5,0,1-0.1,1.5c-0.1,0.3-0.3,0.7-0.5,0.9l-0.3,0.4h4.4l-0.1-0.3c0-0.1-0.1-0.3-0.1-0.4c-0.1-0.3-0.2-0.5-0.2-0.8
	c-0.2-0.7-0.3-1.4-0.3-2.1v-20.7l22.7,25.1l0.4,0.5v-27.4c0-0.5,0-1,0.1-1.5c0.1-0.4,0.2-0.8,0.3-1.2l0.1-0.3h-3.9l0.1,0.3
	c0.1,0.4,0.2,0.7,0.3,1.1c0.2,0.9,0.2,1.9,0.2,2.9v18.2l-19.7-22.5H740l0.8,0.5C741.2,268.4,741.4,268.7,741.5,269.1 M773.1,268.9
	c0.1,0.4,0.2,0.7,0.2,1.1v24.4c0,0.3,0,0.7-0.1,1c-0.1,0.4-0.2,0.7-0.5,1l-0.3,0.4h17.2l1.2-4.1l-0.6,0.4c-0.4,0.3-0.8,0.5-1.2,0.6
	c-1,0.3-2.1,0.5-3.1,0.4h-8.9v-12.3h7.4c0.4,0,0.8,0,1.2,0c0.5,0.1,1.1,0.3,1.6,0.5l0.3,0.2v-3.4H777v-8.9h8c0.4-0.1,0.8,0,1.2,0.1
	c0.4,0.1,0.7,0.3,1,0.6l0.4,0.4v-3.7h-15.4l0.4,0.4C772.8,268.4,773,268.7,773.1,268.9 M547.9,346.5c6.2-0.1,10.8-4.4,10.8-9.9
	v-17.1c0-0.3,0-0.6,0-0.9c0.1-0.4,0.2-0.8,0.3-1.2l0.1-0.3h-4.7l0.1,0.3c0.2,0.4,0.3,0.8,0.4,1.2c0.1,0.5,0.1,1,0.1,1.4v16.4
	c0.1,3.9-3.1,7.1-7,7.2c-0.1,0-0.1,0-0.2,0h-0.2c-4.2,0-7.7-3.3-7.8-7.4v-16.6c0-0.3,0-0.7,0.1-1c0-0.4,0.2-0.8,0.3-1.1l0.2-0.4
	h-4.6l0.1,0.3c0.3,0.7,0.4,1.5,0.4,2.3v16.8c0,5.7,4.9,10,11.5,10L547.9,346.5L547.9,346.5z M567.5,345.3c-0.1-0.2-0.2-0.5-0.2-0.8
	c-0.2-0.7-0.3-1.4-0.3-2v-20.6l22.7,25.1l0.4,0.5V320c0-0.5,0-1,0.1-1.5c0.1-0.4,0.2-0.8,0.3-1.2l0.1-0.3h-3.9l0.1,0.3
	c0.1,0.4,0.2,0.7,0.3,1.1c0.2,1,0.2,1.9,0.2,2.9v18.2L567.6,317h-5.2l0.8,0.5c0.3,0.2,0.6,0.4,0.7,0.8c0.2,0.3,0.3,0.7,0.3,1.1v23.9
	c0,0.5,0,1-0.2,1.5c-0.1,0.3-0.2,0.7-0.5,1l-0.3,0.4h4.4l-0.1-0.3L567.5,345.3 M599.9,318.5l0.1-0.1c0.1-0.3,0.2-0.6,0.4-0.9
	l0.2-0.4H595l0.2,0.4c0.3,0.4,0.5,0.8,0.6,1.3c0.2,0.5,0.2,0.9,0.2,1.4v23.3c0,0.5,0,1-0.2,1.4c-0.1,0.3-0.2,0.6-0.4,0.9l-0.2,0.4
	h5.3l-0.2-0.4c-0.1-0.1-0.1-0.2-0.2-0.3c-0.2-0.2-0.3-0.5-0.3-0.7c-0.1-1.2-0.1-2.5-0.1-3.7v-21C599.7,319.5,599.7,319,599.9,318.5
	 M608.9,317H603l0.8,0.5c0.4,0.2,0.7,0.5,0.8,0.9c0.1,0.2,0.3,0.4,0.3,0.7l13.7,28l12.7-27.1c0.2-0.4,0.4-0.7,0.6-1.1
	c0.3-0.5,0.5-0.9,0.9-1.4l0.3-0.4h-4.8l0.1,0.3c0.1,0.3,0.1,0.6,0.1,0.9c0,0.3-0.1,0.6-0.3,0.9l-0.2,0.4l-9.4,20.2l-10-21.1
	c-0.1-0.2-0.2-0.5-0.2-0.7c0-0.2,0-0.4,0.1-0.5L608.9,317z M636.8,345.7l-0.3,0.4h17.2l1.2-4l-0.6,0.4c-0.4,0.3-0.8,0.5-1.2,0.6
	c-1,0.3-2.1,0.5-3.1,0.5h-8.9v-12.4h7.4c0.4,0,0.8,0,1.2,0.1c0.5,0.1,1.1,0.3,1.6,0.5l0.3,0.2v-3.4H641v-8.9h7.5h0.5
	c0.4,0,0.8,0,1.2,0.1c0.4,0.1,0.7,0.3,1,0.6l0.4,0.4v-3.7h-15.4l0.4,0.4c0.2,0.2,0.4,0.5,0.5,0.7c0.1,0.4,0.2,0.8,0.2,1.1v24
	c0,0.1,0,0.3,0,0.4c0,0.3,0,0.7-0.1,1C637.2,345.1,637,345.5,636.8,345.7 M679.6,345.7c-0.5-0.4-1-0.7-1.4-1.1
	c-0.8-0.8-1.6-1.7-2.3-2.7l-6.9-8.8c-0.6-0.8-1.3-1.5-2-2.2l0,0h0.3c3.9-0.1,7-3.2,7-7c0.1-1.7-0.5-3.4-1.7-4.7
	c-1.5-1.4-3.5-2.2-5.5-2.2h-9l0.3,0.6c0.2,0.3,0.3,0.6,0.4,0.9c0.2,0.9,0.2,1.8,0.2,2.7v20.5c0,1,0,1.9-0.1,2.9
	c0,0.3-0.1,0.6-0.3,0.9l-0.3,0.6h5l-0.1-0.3c0-0.1-0.1-0.3-0.1-0.4c-0.1-0.3-0.2-0.7-0.3-1c-0.1-0.4-0.1-0.8-0.1-1.2v-13l0.1,0.1
	c0.2,0.1,0.3,0.3,0.5,0.5c0.1,0.1,0.2,0.2,0.3,0.4l11.5,14.9l0.1,0.1h5.4l-0.6-0.4L679.6,345.7z M662.5,319.7
	c0.9-0.4,1.8-0.5,2.8-0.4c4.4,0.2,5.2,2.5,5.3,4.7c0.2,3-2,5-5.8,5.3c-0.7,0-1.5,0-2.2-0.1V319.7z"/>
<path class="st1" d="M679.9,323.9c0,2.9,1.4,4.9,4.6,6.8l5.2,3c2.2,1.3,4.3,2.6,4.3,5.3c0,3.3-2.5,5.2-6.6,5.2h-0.5
	c-2.6,0-4.4-0.2-6.5-1.9L680,342v3.7l0.2,0.1c1.8,0.6,3.7,0.9,5.7,0.8h0.8h0.5c2.3,0,6.6-0.4,9-2.9c1.3-1.4,2-3.3,1.8-5.1
	c-0.2-4.5-2.6-5.9-5.6-7.5l-1-0.6l-4.6-2.6c-1.9-1.1-3.1-2.1-3.2-4c-0.1-1.1,0.3-2.1,1-2.9c1.2-1.2,2.9-1.9,4.6-1.9h0.4
	c1.9-0.1,3.8,0.6,5.3,1.9l0.4,0.4v-3.7l-0.2-0.1c-1.6-0.6-3.2-0.9-4.9-0.8c-0.4,0-0.9,0-1.3,0c-2.7-0.1-5.2,0.9-7.2,2.7
	C680.6,320.6,679.9,322.2,679.9,323.9 M706.7,318.5l0.1-0.3c0.1-0.3,0.2-0.5,0.3-0.8l0.2-0.4h-5.5l0.2,0.4c0.3,0.4,0.5,0.8,0.6,1.2
	c0.2,0.5,0.2,0.9,0.2,1.4v23.3c0,0.5,0,1-0.2,1.4c-0.1,0.3-0.2,0.6-0.4,0.9l-0.2,0.4h5.3l-0.2-0.4c-0.1-0.1-0.1-0.2-0.2-0.3
	c-0.1-0.2-0.2-0.4-0.3-0.7c-0.1-1.2-0.1-2.5-0.1-3.7v-21C706.4,319.6,706.5,319.1,706.7,318.5 M712.8,319.8h7v23.7
	c0,0.2,0,0.4,0,0.5c0,0.3,0,0.7,0,1c-0.1,0.3-0.2,0.6-0.4,0.9l-0.2,0.4h4.8h0.4l-0.2-0.4c-0.2-0.3-0.3-0.6-0.4-1
	c-0.1-0.4-0.2-0.8-0.2-1.2v-24h6c0.6,0,1.1,0.1,1.7,0.3c0.4,0.1,0.9,0.3,1.2,0.5l0.4,0.2l-0.3-3.4h-21.9l-0.8,3.7l0.5-0.3
	c0.4-0.3,0.9-0.5,1.4-0.6C712.2,319.8,712.5,319.7,712.8,319.8 M756.1,319.8c0.3-0.5,0.5-0.8,0.8-1.2c0.3-0.4,0.6-0.7,0.9-1l0.5-0.4
	h-4.8v0.3c0,0.2,0,0.4,0,0.6c-0.1,0.3-0.2,0.6-0.4,0.8l-6.3,10l-5.8-9.4l-0.1-0.2c-0.2-0.3-0.4-0.6-0.5-1c-0.1-0.3-0.1-0.6-0.1-0.9
	v-0.3h-5.6l0.5,0.4c0.2,0.2,0.5,0.4,0.6,0.6l0.1,0.1c0.3,0.3,0.5,0.7,0.7,1.1l7.7,12.2v12.8c0,0.1,0,0.2,0,0.2c0,0.2,0,0.3,0,0.5
	c0,0.3-0.1,0.6-0.2,0.8l-0.1,0.3h4.4l-0.1-0.3c-0.1-0.3-0.2-0.5-0.2-0.8c-0.1-0.3-0.1-0.6-0.1-0.9v-12.7L756.1,319.8L756.1,319.8z
	 M787.4,316.5c-8.2,0.1-14.8,6.9-14.6,15.1c0.1,7.9,6.4,14.4,14.4,14.6h0.4c4,0,7.8-1.6,10.7-4.4c0.4-0.6,0.8-1.2,1.2-1.8l0.5-0.7
	c0.9-1.4,1.5-2.9,1.9-4.5c0.1-0.3,0.1-0.5,0.1-0.8c0.2-0.9,0.4-1.7,0.5-2.6c-0.1-8-6.5-14.6-14.5-14.8H787.4z M787.6,319.3
	c6.3,0.1,11.1,5.2,11.1,12c0,3.1-1.2,6.1-3.2,8.4c-2,2.3-4.9,3.6-8,3.6h-0.2c-6.2-0.1-11-5.5-10.9-12.2c0.1-5.7,4-11.9,11-11.9
	H787.6z M810.4,328.6v-8.9h8.3c0.3,0,0.7,0,1,0.1c0.3,0.1,0.6,0.3,0.9,0.5l0.5,0.4v-3.6h-15.3l0.3,0.4c0.2,0.2,0.3,0.5,0.4,0.8
	c0.1,0.4,0.2,0.7,0.2,1.1v24.5c0,0.3,0,0.7,0,1c-0.1,0.4-0.2,0.7-0.4,1l-0.2,0.4h4.9l-0.1-0.3c0-0.1-0.1-0.3-0.1-0.4
	c-0.1-0.1-0.1-0.3-0.1-0.4c-0.2-1.2-0.2-2.4-0.2-3.7v-10.3h7.4c0.2,0,0.4,0,0.6,0c0.3,0,0.6,0,1.1,0c0.3,0,0.7,0.1,1,0.2l0.6,0.1
	v-2.9L810.4,328.6L810.4,328.6z M544.3,366.3l-0.8,3.7l0.5-0.3c0.4-0.3,0.9-0.5,1.4-0.5c0.3-0.1,0.6-0.1,0.9-0.1h7v23.7
	c0,0.2,0,0.4,0,0.5c0,0.3,0,0.7,0,1v0.1c-0.1,0.3-0.2,0.5-0.3,0.8l-0.2,0.4h5.3l-0.2-0.4c-0.2-0.3-0.3-0.6-0.4-0.9
	c-0.1-0.4-0.1-0.8-0.1-1.2v-24h6c0.6,0,1.1,0.1,1.6,0.3c0.4,0.1,0.9,0.2,1.2,0.5l0.4,0.2l-0.3-3.5L544.3,366.3z M587.3,392.3
	c-1,0.3-2.1,0.5-3.1,0.5h-8.9v-12.3h7.4c1,0,1.9,0.2,2.8,0.6l0.3,0.2v-3.4h-10.7v-8.9h8c0.4-0.1,0.8,0,1.2,0.1
	c0.4,0.1,0.7,0.3,1,0.6l0.4,0.4v-3.7h-15.4l0.4,0.4c0.2,0.2,0.4,0.5,0.5,0.7c0.1,0.4,0.2,0.7,0.2,1.1v24c0,0.1,0,0.3,0,0.4
	c0,0.3,0,0.7-0.1,1c-0.1,0.4-0.2,0.7-0.5,1l-0.3,0.4h17.1l1.3-4l-0.6,0.4C588.2,392,587.7,392.2,587.3,392.3 M606.4,393.1H606
	c-3.5,0.1-6.9-1.2-9.4-3.7c-2.2-2.2-3.4-5.3-3.2-8.4c-0.1-6.8,5.4-12.3,12.1-12.4c0.1,0,0.2,0,0.4,0h0.3c2.3,0,4.6,0.6,6.5,1.8
	l0.4,0.2v-3.4l-0.1-0.1c-2.2-0.9-4.5-1.3-6.8-1.2h-0.2c-4.5-0.1-8.8,1.6-12,4.7c-0.4,0.6-0.8,1.1-1.2,1.7c-0.1,0.2-0.2,0.4-0.4,0.6
	c-0.9,1.4-1.6,3-2,4.7c0,0.2-0.1,0.5-0.1,0.7c-0.3,0.9-0.4,1.8-0.5,2.7c0,8.5,6.9,14.9,15.9,14.9h0.9h0.4c2.2,0.1,4.4-0.3,6.5-1h0.1
	l1.9-4.7l-0.7,0.5C612.3,392.4,609.4,393.2,606.4,393.1 M641.1,394c-0.1-0.4-0.1-0.8-0.1-1.2v-22.5c0-0.2,0-0.4,0-0.5
	c0-0.6,0-1.3,0.2-1.9c0.1-0.4,0.2-0.8,0.4-1.1l0.2-0.4h-5.4l0.4,0.4c0.3,0.3,0.6,0.8,0.7,1.2c0.1,0.4,0.2,0.7,0.1,1.1
	c0,0.1,0,0.3,0,0.4v8.2h-15.1v-8.1c0-0.7,0-1.4,0.2-2l0.1-0.2c0.1-0.3,0.2-0.5,0.4-0.8l0.2-0.4h-5.4l0.3,0.4
	c0.3,0.3,0.5,0.7,0.6,1.1c0.1,0.5,0.2,0.9,0.1,1.4V393c0,0.4,0,0.8-0.1,1.2c-0.1,0.3-0.3,0.5-0.5,0.8l-0.3,0.4h5.4l-0.4-0.6
	c-0.2-0.2-0.3-0.4-0.4-0.6c-0.2-0.6-0.2-1.3-0.2-1.9v-11.9h15v12.5c0,0.2,0,0.3,0,0.4c0,0.2,0,0.4,0,0.5c-0.1,0.4-0.3,0.8-0.5,1.1
	l-0.3,0.4h5.2l-0.2-0.4c-0.2-0.3-0.3-0.7-0.5-1.1 M669.7,366.5c0.1,0.4,0.2,0.7,0.3,1.1c0.2,0.9,0.2,1.9,0.2,2.9v18.2l-19.7-22.5
	h-5.2l0.8,0.5c0.3,0.2,0.6,0.4,0.7,0.8c0.2,0.3,0.3,0.7,0.3,1.1v23.9c0,0.5,0,1-0.1,1.5c-0.1,0.3-0.2,0.7-0.5,0.9l-0.2,0.4h4.4
	l-0.1-0.3c0-0.2-0.1-0.3-0.1-0.5c-0.1-0.2-0.2-0.5-0.2-0.8c-0.2-0.7-0.3-1.4-0.3-2.1v-20.6l22.7,25.1l0.4,0.5v-27.4
	c0-0.5,0-1,0.1-1.5c0.1-0.4,0.2-0.8,0.3-1.2l0.1-0.3h-3.8L669.7,366.5L669.7,366.5z M706.5,383.9c0-0.3,0.1-0.5,0.1-0.8
	c0.2-0.9,0.4-1.7,0.5-2.6c-0.1-8-6.5-14.6-14.5-14.8h-0.4c-8.2-0.1-14.9,6.5-15,14.7c-0.1,8.2,6.5,14.9,14.7,15l0,0h0.4
	c4,0,7.8-1.6,10.6-4.4c0.4-0.6,0.8-1.2,1.2-1.8c0.2-0.2,0.3-0.5,0.5-0.7C705.5,387,706.1,385.5,706.5,383.9z M692.4,368.5
	c6.3,0.1,11,5.2,11.1,12c0,3.1-1.2,6.1-3.2,8.4c-2,2.3-4.9,3.6-8,3.7H692c-6.2-0.1-11-5.5-10.9-12.2c0.1-5.7,4-11.9,11.1-11.9
	L692.4,368.5z M728.4,392.2c-0.1,0-0.2,0.1-0.3,0.1c-0.5,0.2-1.1,0.3-1.6,0.2h-10.8V370c0-0.2,0-0.4,0-0.6c0-0.6,0-1.2,0.2-1.8
	c0.1-0.4,0.2-0.7,0.4-1l0.2-0.4h-5.3l0.3,0.4c0.3,0.4,0.5,0.8,0.6,1.2c0.1,0.5,0.2,0.9,0.2,1.4v23.6c0.1,0.7-0.2,1.4-0.6,2l-0.3,0.4
	h17.2l1.3-3.5l-0.4-0.3C728.7,392.1,728.6,392.1,728.4,392.2 M758.9,383.8c0-0.3,0.1-0.5,0.1-0.8c0.2-0.9,0.4-1.7,0.5-2.6
	c-0.1-8-6.5-14.6-14.5-14.8h-0.5c-8.2,0-14.8,6.7-14.8,14.9c0.1,8,6.5,14.6,14.5,14.9h0.4c4,0,7.8-1.6,10.7-4.4
	c0.4-0.6,0.8-1.2,1.2-1.8c0.2-0.2,0.3-0.5,0.5-0.8C757.8,387,758.5,385.4,758.9,383.8L758.9,383.8z M744.7,368.4
	c6.3,0.1,11.1,5.2,11.1,12c0,3.1-1.2,6.1-3.2,8.4c-2,2.3-4.9,3.6-8,3.7h-0.2c-6.2-0.1-11-5.5-10.9-12.2c0.1-5.7,4-11.9,11.1-11.9
	L744.7,368.4z M785,381.1c0.4,0.4,0.7,0.8,0.8,1.3c0.2,0.9,0.4,1.9,0.3,2.8v5.8c-1.9,1.1-4.1,1.7-6.3,1.7c-0.2,0-0.4,0-0.7,0
	c-6.6,0.2-12.1-5-12.3-11.7c0-0.1,0-0.1,0-0.2c-0.1-3.2,1.1-6.4,3.3-8.8c2.2-2.2,5.2-3.5,8.4-3.4c2.7-0.1,5.5,0.5,7.9,1.8l0.4,0.2
	v-3.5l-0.2-0.1c-2.4-0.9-5-1.3-7.5-1.2h-0.2c-0.9,0.1-1.8,0.2-2.7,0.5c-0.2,0-0.5,0.1-0.7,0.1c-1.8,0.3-3.4,0.9-5,1.8l-0.3,0.2
	c-1.5,0.9-2.8,2.1-3.8,3.4c-0.1,0.2-0.2,0.4-0.4,0.6c-1,1.4-1.6,3.1-2,4.8c-0.1,0.3-0.1,0.6-0.2,0.9c-0.3,0.9-0.4,1.9-0.5,2.8
	c0.1,0.9,0.2,1.8,0.5,2.7c0,0.2,0.1,0.4,0.1,0.6c0.4,1.7,1.1,3.4,2.2,4.8c0.1,0.1,0.2,0.2,0.2,0.3c0.3,0.6,0.7,1.2,1.1,1.7
	c3.1,3.1,7.3,4.8,11.7,4.7h0.8c3.4-0.1,6.7-1.1,9.7-2.9l0.1-0.1v-9.7v-0.2c0-0.3,0-0.6,0.1-0.9c0.1-0.3,0.3-0.6,0.5-0.9l0.3-0.4
	h-5.9L785,381.1L785,381.1z M809.3,366.5c0,0.2,0,0.4,0,0.6c-0.1,0.3-0.2,0.6-0.4,0.8l-6.3,10l-5.9-9.6c-0.2-0.3-0.3-0.6-0.4-0.9
	c-0.1-0.3-0.1-0.6-0.1-0.9v-0.3h-5.6l0.6,0.4c0.3,0.2,0.5,0.4,0.7,0.7l0.1,0.1c0.3,0.4,0.4,0.6,0.7,1l7.8,12.2v12.8
	c0,0.1,0,0.2,0,0.2c0,0.2,0,0.3,0,0.5c0,0.3-0.1,0.6-0.2,0.8l-0.1,0.3h4.4l-0.1-0.3c-0.1-0.2-0.1-0.4-0.2-0.6l-0.1-0.2
	c-0.1-0.3-0.1-0.6-0.1-0.9v-12.6l7.8-11.8c0.3-0.5,0.5-0.8,0.8-1.3c0.3-0.4,0.6-0.7,0.9-1l0.5-0.4h-4.8L809.3,366.5L809.3,366.5z
	 M186.5,270.6c-9.1-0.1-15.4-0.8-22.5-6.6v10.2c7.9,3,13.1,2.7,21.5,2.8c17.4,0.4,38.2-5,37.5-26.3c-0.6-16.4-10.3-20-21.9-26.7
	l-15.3-8.9c-6-3.5-10.7-7.2-11.3-14c-0.9-10.6,10.7-17.6,21.2-17c7.5,0.2,12.9,1.4,18.3,6.6v-9.9c-7-2.8-11.7-2.6-19.3-2.8
	c-16.2-0.5-31.2,8.5-31,23.7c0.1,10.3,5.7,16.6,15.1,22.1l17.5,10c8,4.5,14.8,9.3,14.8,18.4C211,264.3,201.7,271.1,186.5,270.6
	 M227.5,187.3c0.8,1,1.4,2.2,1.7,3.4l32.2,86.7l23.6-64.9l24,64.4l30.4-84.7c0.5-1.3,1.1-2.5,1.8-3.7c0.9-1.5,2-3,3.2-4.4H331
	c0.7,1,1.1,2.1,1.1,3.3c0,1.5-0.3,3-1.1,4.3l-20.7,61.6l-22.4-62.3c-0.9-2.2-0.7-4.7,0.6-6.7h-16.6c0.9,0.9,1.8,1.8,2.5,2.8
	c1,1,1.9,2.2,2.5,3.5l4.5,11.4l-19.2,51l-22.3-63.4c-0.3-0.9-0.3-1.8,0-2.7c0.1-1,0.5-1.9,1.1-2.7h-16.7
	C225.5,185.1,226.6,186.1,227.5,187.3 M344.2,211.3c0.6,0.9,1,1.8,1.3,2.8c0.4,1,0.6,2.2,0.5,3.3v52.2c0.1,1.1-0.1,2.2-0.5,3.2l0,0
	l0,0c-0.2,0.7-0.6,1.4-1,2.1l-0.3,0.5h11.2l-0.3-0.5l-0.4-0.6c-0.4-0.5-0.7-1.1-0.8-1.7c-0.2-2.8-0.3-5.5-0.3-8.3v-47.1
	c0-1.2,0.2-2.4,0.6-3.5c0.3-0.8,0.6-1.6,1-2.4l0.2-0.4h-11.6L344.2,211.3z M454.2,184.2h-10.3c0.4,1.3,0.6,2.2,0.9,3.5
	c0.9,4.4,0.6,7.2,0.6,11.6v57.8l-63.8-72.8h-13.4c1.2,0.6,2.1,1.6,2.6,2.8c0.7,1.2,1,2.5,1,3.9v76.1c0.1,1.6-0.1,3.3-0.5,4.9
	c-0.2,1.2-0.8,2.3-1.6,3.3h11.6c-0.5-1.3-0.8-2.6-1.1-3.9c-0.8-4-0.8-4-0.8-6.7v-67.7l73.7,81.4l-0.1-85.3c-0.1-1.6,0.1-3.3,0.4-4.9
	C453.4,186.9,453.7,185.6,454.2,184.2 M258,356.9c0-12-5.6-19.4-15.8-22.8l-3.7-1.3l3.4-2.1c6.6-3.8,10.1-8.4,9.9-17.1
	c-0.6-11.8-9.8-21.8-21.6-21.8h-27.6c0.8,1.1,1.4,2.2,1.9,3.4c0.8,1.7,1.2,3.5,1.2,5.4v75c0,1.6-0.3,3.2-0.9,4.8
	c-0.4,0.9-0.9,1.8-1.5,2.6h24.3C246.4,382.9,257.9,373,258,356.9z M215.6,297.8h8.9c11.3,0,17.6,6.6,18,15.7
	c0.4,9.9-5.7,17.1-19,17.1h-7.9V297.8z M225,377.4c-3,0.2-6-0.1-8.9-1.1v-39.1c2.6-0.6,5.3-0.9,7.9-0.7c12.1,0.4,23.9,4.6,24.3,20.3
	C248.6,369.9,236.9,376.6,225,377.4L225,377.4z M343.1,300.1c-0.1-1.5,0-2.9,0.1-4.4c0.2-1.4,0.5-2.7,1-4h-12.7c0.5,1.3,1,2.6,1.2,4
	c0.2,1.5,0.3,3.1,0.2,4.6v52.2c0,12.9-9.8,23.3-23.7,23.7s-26.6-10.4-26.6-24.4v-52.1c-0.1-1.4,0-2.9,0.2-4.3
	c0.2-1.3,0.6-2.6,1.1-3.8h-12.4c0.6,1.5,0.9,3.1,1.1,4.8c0.2,1.4,0.2,2.8,0.1,4.1V353c0,18.5,16.3,31.5,36.5,31.2
	c18.8-0.4,33.8-13.2,33.8-30.7V300.1z M424.8,379.3c-2.8-2.5-5-5.4-7.8-9l-21.7-27.6c-1.9-2.5-4.1-4.8-6.4-7
	c-0.7-0.6-1.1-1.1-1.8-1.7c13.4,2.1,24.5-8.8,24.8-21.5c0.4-13-10.4-21-22.3-21h-27.4c0.8,1.2,1.3,2.4,1.7,3.8
	c0.5,2.9,0.8,5.8,0.7,8.8v65.4c0.1,3.1,0,6.2-0.4,9.3c-0.1,1.5-0.7,2.3-1.5,3.8h13.4c-0.6-1.4-1.1-2.9-1.3-4.4
	c-0.4-1.6-0.5-3.3-0.4-5v-41.8c0.6,0.3,1.1,0.7,1.6,1.1c0.9,0.9,1.8,1.9,2.4,2.9L415,383h14.4C427.8,381.8,426.2,380.6,424.8,379.3
	 M374.5,330.3v-31.5c3.5-1.6,5.9-1.7,9.6-1.7c14.8,0.6,17.2,8.4,17.7,15.7c0.7,10.1-6.8,16.7-19.4,17.7
	C379.8,330.6,377.1,330.6,374.5,330.3 M311.3,402.5c0.9,4.4,0.6,7.2,0.6,11.6v57.8l-63.8-72.8h-13.4c1.1,0.6,2.1,1.6,2.6,2.8
	c0.7,1.2,1,2.5,1,3.9v76.1c0.1,1.6-0.1,3.3-0.5,4.9c-0.2,1.2-0.8,2.3-1.6,3.3h11.6c-0.5-1.3-0.8-2.6-1.1-3.9c-0.9-4-0.9-4-0.9-6.7
	v-67.7l73.7,81.4l-0.1-85.3c-0.1-1.6,0.1-3.3,0.4-4.9c0.2-1.4,0.5-2.7,1-4h-10.3C310.9,400.3,311.1,401.2,311.3,402.5 M381.9,483.3
	h-29.1v-40.8h24.4c1.3,0,2.7,0,4,0.2c1.8,0.4,3.5,0.9,5.1,1.7v-8.7h-33.9v-30h24.8c2.1,0,3.5-0.4,5.6,0.4c1.3,0.4,2.6,1.2,3.5,2.2
	v-9.1h-46.5c0.8,0.7,1.3,1.6,1.7,2.5c0.5,1.2,0.7,2.6,0.7,3.9V482c0.2,1.5,0.1,3.1-0.2,4.6c-0.3,1.2-0.8,2.4-1.6,3.4H393l3.2-10.2
	c-1.3,0.9-2.7,1.6-4.1,1.9C388.8,482.9,385.3,483.4,381.9,483.3 M199.6,439.9c-0.4-0.2-0.9-0.3-1.3-0.4c-0.2,0-0.6,0.1-0.8,0
	l-0.1-0.2c-0.9,0.1-1.8,0.4-2.6,0.8c-1.2,0.6-1.7,1.3-2.7,1.4h-0.2c-0.4-0.2-0.8-0.5-1.1-0.8c-0.1-0.2,0-0.6,0.1-0.8
	c0.4-2.1,3.5-1.4,4.7-2c0.6-0.3,1.1-0.8,1.5-1.4c0.5-1,0.7-2.1,0.6-3.2c0-0.2-0.8-2.4-0.5-3.3c0.1-0.3,0.2-0.7,0.2-1
	c-0.1-0.2-0.3-0.3-0.5-0.5c-0.6,0.3-1.2,0.5-1.8,0.7c-0.7,0.1-1.5,0-2.2,0.1c-1.5,0.2-2.8,1-3.5,2.3c-0.8,1.6-0.7,3.4,0.1,5
	c0,0.2,0.1,0.2,0.2,0.4c0,0.6-1.2,1.5-1.9,1.4c-0.7-0.3-1.1-0.8-1.3-1.5c0-0.5,0.1-0.9,0.2-1.4c0.1-0.3,0.2-0.7,0.2-1
	c0.1-0.8,0-1.5-0.1-2.3c-0.3-0.6-0.6-1.2-0.9-1.7c-0.7-0.5-1.5-1-2.3-1.4c-0.4,0-0.8-0.1-1.1-0.1c-0.6,0-1.3-0.1-1.9-0.1l-1.7-1
	c-0.1-0.1-0.7,0.1-0.7,0.1c-0.1,0.2-0.3,0.5-0.3,0.7c0,0.8,0.6,1.3,0.4,2.2c-0.4,1-0.6,2-0.8,3c0.2,1.5,1,2.9,2.3,3.9
	c0.3,0.1,0.5,0.2,0.8,0.3c0.4,0.2,0.6,0.5,1,0.6c0.2,0.1,0.6-0.1,0.8,0c0.9,0.5,1.7,1.1,2.4,1.7c0.1,0.2-0.1,0.8-0.2,0.9
	c-0.4,0.5-1,0.7-1.6,0.5l-0.2,0.1c-0.2-0.2-0.6-0.3-0.7-0.4s-0.3-0.5-0.5-0.7c-0.6-0.3-1.2-0.6-1.8-0.8c-0.9-0.3-1.9-0.2-2.8,0.1
	c-0.5,0.4-0.9,0.7-1.3,1.1c-0.1,0.2-0.4,0.2-0.5,0.4c-0.4,0.8-0.8,1.6-1.1,2.4c-0.3,0.5-0.8,0.8-0.9,1.3c-0.2,0.5,0,0.5,0.3,1.1h0.2
	c0.6,0.4,1.2,0.9,1.8,1.4c0.8,0.7,1.7,1.2,2.8,1.3c0.3,0,1.4-0.2,1.6-0.2c0.7-0.2,1.3-0.5,1.9-0.9c0.5-0.7,1-1.5,1.5-2.3
	c0-0.1,1.5-1.8,2.1-1.5c0.4,0.3,0.8,0.7,1,1.1c0,0.4,0,0.8-0.1,1.1c-0.3,0.6-1,0.8-1.6,1.4c-0.5,0.6-0.8,1.2-1.2,1.9
	c-0.1,0.3-0.1,0.7,0,1c-0.1,1.2,0.3,2.4,1.1,3.3c0.2,0.2,0.7,0.5,0.9,0.7c0.7,0.7,1.5,2,2.3,1.9s1.2-1.1,2.1-1.6
	c1-0.5,1.8-1.4,2.3-2.3c0.1-0.6,0.1-1.1,0.1-1.7c-0.1-0.6-0.3-1.3-0.5-1.9c-0.2-0.5-0.4-1-0.7-1.4c-0.5-0.6-1.7-0.9-2-1.6
	c0,0,0.1-0.3,0.1-0.4c0-0.2-0.2-0.3-0.2-0.5c0.1-0.4,0.2-0.8,0.4-1.2c0.7-0.6,1.8-0.6,2.6,0c0.7,0.7,0.5,1.5,0.9,2.2
	c0.9,1.5,2.5,2.3,4.2,2.4c0.5,0,0.9-0.1,1.4-0.3c0.6-0.4,1.2-0.8,1.6-1.4c0.6-0.5,1.7-1.1,2.1-1.7c0.3-0.6-0.6-2-0.8-2.6
	C201,441.7,200.4,440.7,199.6,439.9 M449.8,444.1c-0.3-0.8-0.6-1.7-1-2.4c-0.1-0.2-0.4-0.2-0.5-0.4c-0.4-0.4-0.8-0.8-1.3-1.1
	c-0.9-0.3-1.9-0.4-2.8-0.1c-0.6,0.3-1.2,0.5-1.8,0.9c-0.2,0.2-0.3,0.5-0.5,0.7s-0.5,0.3-0.7,0.4l-0.2-0.1c-0.6,0.2-1.2,0-1.6-0.5
	c-0.1-0.2-0.4-0.7-0.2-1c0.8-0.6,1.6-1.2,2.5-1.7c0.1,0,0.6,0.1,0.8,0c0.4-0.1,0.5-0.4,1-0.6c0.2-0.1,0.7-0.2,0.9-0.3
	c1.3-0.9,2.1-2.3,2.3-3.9c-0.1-1-0.4-2-0.8-3c-0.2-0.9,0.3-1.4,0.4-2.2c0-0.2-0.2-0.5-0.3-0.7c-0.1,0-0.6-0.2-0.7-0.1l-1.7,1
	l-1.9,0.1c-0.1,0-1,0.1-1.1,0.1c-0.8,0.5-1.5,0.9-2.3,1.4c-0.3,0.5-0.7,1.1-0.9,1.7c-0.2,0.7-0.2,1.5-0.1,2.2c0,0.3,0.1,0.7,0.2,1
	c0.1,0.5,0.2,0.9,0.2,1.4c-0.2,0.7-0.7,1.3-1.3,1.5c-0.6,0.1-1.9-0.8-1.9-1.4c0-0.2,0.1-0.2,0.2-0.4c0.8-1.6,0.9-3.4,0.1-5
	c-0.7-1.3-2.1-2.2-3.6-2.4c-0.6-0.1-1.5,0.1-2.2-0.1c-0.6-0.2-1.2-0.5-1.8-0.8c0,0-0.4,0.3-0.5,0.5s0.1,0.8,0.2,1
	c0.3,0.9-0.4,3.1-0.5,3.3c0,1.1,0.2,2.2,0.7,3.2c0.4,0.6,0.9,1.1,1.5,1.4c1.2,0.5,4.3-0.1,4.7,2c0.1,0.3,0.1,0.6,0.1,0.8
	c-0.3,0.3-0.7,0.6-1.1,0.8h-0.2c-1-0.1-1.5-0.7-2.7-1.4c-0.8-0.4-1.7-0.6-2.6-0.8l-0.1,0.2c-0.2,0.1-0.6,0-0.8,0
	c-0.4,0.1-0.9,0.2-1.3,0.4c-0.8,0.8-1.4,1.8-1.7,2.8c-0.2,0.6-1,2.1-0.8,2.6s1.5,1.1,2.1,1.7c0.5,0.6,1,1,1.6,1.4
	c0.4,0.1,0.9,0.2,1.4,0.3c1.7,0,3.3-0.9,4.2-2.4c0.4-0.7,0.2-1.5,0.9-2.2c0.7-0.6,1.8-0.6,2.6,0c0.2,0.4,0.3,0.8,0.4,1.2
	c0,0.2-0.2,0.3-0.2,0.5c0,0,0.1,0.3,0.1,0.4c-0.3,0.7-1.5,1-2,1.6c-0.3,0.4-0.6,0.9-0.8,1.4c-0.2,0.6-0.4,1.2-0.5,1.9
	c0,0.6,0,1.1,0.1,1.7c0.5,1,1.3,1.8,2.3,2.4c0.9,0.5,1.3,1.5,2.1,1.6s1.6-1.2,2.4-1.9c0.2-0.2,0.7-0.5,0.9-0.7
	c0.8-0.9,1.2-2.1,1.1-3.3c0.1-0.4,0.1-0.7,0-1.1c-0.3-0.7-0.7-1.3-1.2-1.9c-0.6-0.6-1.4-0.8-1.6-1.4c-0.1-0.4-0.2-0.7-0.1-1.1
	c0.3-0.4,0.6-0.8,1-1.1c0.6-0.4,2,1.4,2.1,1.5c0.4,0.8,0.9,1.6,1.5,2.3c0.5,0.4,1.2,0.7,1.8,0.9c0.2,0,1.4,0.2,1.6,0.2
	c1-0.2,2-0.6,2.8-1.3c0.6-0.5,1.2-1,1.8-1.5h0.2c0.2-0.6,0.4-0.7,0.3-1.1s-0.6-0.8-0.9-1.3"/>
</svg>
