<?xml version="1.0" standalone="no"?>
<!DOCTYPE svg PUBLIC "-//W3C//DTD SVG 20010904//EN"
 "http://www.w3.org/TR/2001/REC-SVG-20010904/DTD/svg10.dtd">
<svg version="1.0" xmlns="http://www.w3.org/2000/svg"
 width="900.000000pt" height="900.000000pt" viewBox="0 0 900.000000 900.000000"
 preserveAspectRatio="xMidYMid meet">

<g transform="translate(0.000000,900.000000) scale(0.100000,-0.100000)"
fill="#000000" stroke="none">
<path d="M1043 6825 l0 -45 113 0 114 0 0 -295 0 -295 55 0 55 0 2 293 3 292
118 3 117 3 0 44 0 45 -289 0 -288 0 0 -45z"/>
<path d="M1700 6530 l0 -340 54 0 54 0 4 168 c4 179 15 225 61 255 57 36 141
24 168 -25 9 -16 15 -82 17 -210 l4 -188 55 0 55 0 -4 203 c-4 225 -9 244 -72
292 -66 50 -200 42 -251 -15 -10 -11 -22 -20 -27 -20 -4 0 -8 50 -8 110 l0
110 -55 0 -55 0 0 -340z"/>
<path d="M5163 6730 c-24 -10 -43 -22 -43 -25 0 -3 5 -3 11 0 5 4 34 15 62 26
29 10 43 18 32 18 -11 0 -39 -8 -62 -19z"/>
<path d="M5447 6736 c23 -8 63 -25 89 -40 26 -14 49 -24 51 -22 8 7 -139 76
-161 75 -12 0 -4 -6 21 -13z"/>
<path d="M5806 6741 c-4 -5 3 -7 14 -4 23 6 26 13 6 13 -8 0 -17 -4 -20 -9z"/>
<path d="M5958 6743 c7 -3 16 -2 19 1 4 3 -2 6 -13 5 -11 0 -14 -3 -6 -6z"/>
<path d="M5770 6720 c-9 -6 -10 -10 -3 -10 6 0 15 5 18 10 8 12 4 12 -15 0z"/>
<path d="M2429 6707 c-99 -37 -149 -113 -157 -238 -13 -214 122 -324 337 -278
61 13 117 60 136 114 7 22 12 41 12 41 -1 1 -23 4 -49 8 -44 7 -47 5 -60 -20
-20 -41 -61 -66 -115 -71 -79 -7 -135 40 -149 125 l-7 42 187 0 186 0 0 63 c0
139 -75 217 -214 224 -44 2 -85 -2 -107 -10z m178 -101 c26 -30 38 -68 29 -91
-4 -12 -27 -15 -115 -15 -60 0 -116 3 -124 6 -32 12 17 103 68 125 11 5 42 7
69 5 39 -3 55 -9 73 -30z"/>
<path d="M3338 6703 c6 -2 18 -2 25 0 6 3 1 5 -13 5 -14 0 -19 -2 -12 -5z"/>
<path d="M3433 6703 c9 -2 23 -2 30 0 6 3 -1 5 -18 5 -16 0 -22 -2 -12 -5z"/>
<path d="M4078 6703 c6 -2 18 -2 25 0 6 3 1 5 -13 5 -14 0 -19 -2 -12 -5z"/>
<path d="M4173 6703 c9 -2 25 -2 35 0 9 3 1 5 -18 5 -19 0 -27 -2 -17 -5z"/>
<path d="M5059 6653 l-24 -28 28 24 c25 23 32 31 24 31 -2 0 -14 -12 -28 -27z"/>
<path d="M5710 6648 c-16 -27 -29 -63 -17 -47 15 19 47 79 43 79 -4 0 -15 -15
-26 -32z"/>
<path d="M3183 6638 c-11 -13 -24 -30 -28 -38 -8 -16 -6 -14 34 33 14 15 22
27 19 27 -2 0 -14 -10 -25 -22z"/>
<path d="M3924 6628 l-29 -33 33 29 c30 28 37 36 29 36 -2 0 -16 -15 -33 -32z"/>
<path d="M4330 6657 c0 -2 15 -16 33 -33 l32 -29 -29 33 c-28 30 -36 37 -36
29z"/>
<path d="M6081 6657 c-1 -5 4 -18 11 -30 7 -12 15 -58 18 -102 l7 -80 1 70 c1
50 -4 81 -17 110 -11 22 -20 36 -20 32z"/>
<path d="M3660 6565 c0 -5 5 -17 10 -25 5 -8 10 -10 10 -5 0 6 -5 17 -10 25
-5 8 -10 11 -10 5z"/>
<path d="M3682 6500 c0 -14 2 -19 5 -12 2 6 2 18 0 25 -3 6 -5 1 -5 -13z"/>
<path d="M4983 6430 c0 -36 2 -50 4 -32 2 17 2 47 0 65 -2 17 -4 3 -4 -33z"/>
<path d="M3113 6430 c0 -30 2 -43 4 -27 2 15 2 39 0 55 -2 15 -4 2 -4 -28z"/>
<path d="M6089 6395 c-9 -25 -13 -42 -8 -40 9 6 33 75 27 80 -2 2 -11 -16 -19
-40z"/>
<path d="M3682 6360 c0 -14 2 -19 5 -12 2 6 2 18 0 25 -3 6 -5 1 -5 -13z"/>
<path d="M5410 6357 c0 -2 15 -16 33 -33 l32 -29 -29 33 c-28 30 -36 37 -36
29z"/>
<path d="M4991 6345 c0 -5 6 -21 14 -35 8 -14 14 -20 14 -15 0 6 -6 21 -14 35
-8 14 -14 21 -14 15z"/>
<path d="M3666 6315 c-9 -26 -7 -32 5 -12 6 10 9 21 6 23 -2 3 -7 -2 -11 -11z"/>
<path d="M5386 6313 c-6 -14 -5 -15 5 -6 7 7 10 15 7 18 -3 3 -9 -2 -12 -12z"/>
<path d="M3876 6297 c3 -10 9 -15 12 -12 3 3 0 11 -7 18 -10 9 -11 8 -5 -6z"/>
<path d="M6030 6295 c-7 -8 -16 -13 -19 -10 -4 2 -8 -3 -8 -11 0 -11 6 -9 24
8 13 12 23 23 23 25 0 7 -8 2 -20 -12z"/>
<path d="M5340 6257 c-19 -19 -42 -36 -50 -40 -13 -5 -13 -6 0 -6 9 -1 34 17
55 39 47 48 44 53 -5 7z"/>
<path d="M4379 6253 c-13 -16 -12 -17 4 -4 9 7 17 15 17 17 0 8 -8 3 -21 -13z"/>
<path d="M5045 6252 c11 -13 29 -28 40 -34 21 -11 18 -8 -30 32 -29 24 -29 24
-10 2z"/>
<path d="M3915 6240 c10 -11 20 -20 23 -20 3 0 -3 9 -13 20 -10 11 -20 20 -23
20 -3 0 3 -9 13 -20z"/>
<path d="M3174 6231 c20 -22 26 -25 26 -13 0 4 -10 13 -22 21 -23 14 -23 14
-4 -8z"/>
<path d="M5574 6236 c11 -9 24 -16 30 -16 12 0 7 5 -24 19 -24 11 -24 11 -6
-3z"/>
<path d="M5954 6234 c-18 -14 -18 -15 4 -4 12 6 22 13 22 15 0 8 -5 6 -26 -11z"/>
<path d="M3609 6223 c-13 -16 -12 -17 4 -4 16 13 21 21 13 21 -2 0 -10 -8 -17
-17z"/>
<path d="M5890 6210 c-18 -12 -2 -12 25 0 13 6 15 9 5 9 -8 0 -22 -4 -30 -9z"/>
<path d="M5183 6193 c9 -2 25 -2 35 0 9 3 1 5 -18 5 -19 0 -27 -2 -17 -5z"/>
<path d="M5758 6193 c12 -2 32 -2 45 0 12 2 2 4 -23 4 -25 0 -35 -2 -22 -4z"/>
<path d="M3270 6170 c8 -5 22 -9 30 -9 10 0 8 3 -5 9 -27 12 -43 12 -25 0z"/>
<path d="M3328 6153 c7 -3 16 -2 19 1 4 3 -2 6 -13 5 -11 0 -14 -3 -6 -6z"/>
<path d="M3458 6153 c6 -2 18 -2 25 0 6 3 1 5 -13 5 -14 0 -19 -2 -12 -5z"/>
<path d="M4068 6153 c6 -2 18 -2 25 0 6 3 1 5 -13 5 -14 0 -19 -2 -12 -5z"/>
<path d="M4208 6153 c7 -3 16 -2 19 1 4 3 -2 6 -13 5 -11 0 -14 -3 -6 -6z"/>
<path d="M6701 5989 c-76 -15 -131 -48 -163 -98 -60 -95 -59 -81 -56 -847 l3
-699 24 -59 c30 -75 99 -146 166 -172 46 -17 88 -19 548 -22 538 -3 579 0 655
51 136 92 148 393 20 490 -78 60 -88 61 -408 67 l-295 5 -5 541 -5 541 -35 69
c-30 59 -43 73 -85 96 -81 44 -245 61 -364 37z"/>
<path d="M7488 5983 c6 -2 18 -2 25 0 6 3 1 5 -13 5 -14 0 -19 -2 -12 -5z"/>
<path d="M7718 5983 c7 -3 16 -2 19 1 4 3 -2 6 -13 5 -11 0 -14 -3 -6 -6z"/>
<path d="M1225 5973 c-153 -34 -226 -124 -227 -281 0 -93 12 -142 51 -204 57
-90 142 -118 361 -118 l140 0 0 -477 c0 -263 5 -511 10 -551 24 -185 103 -258
294 -269 105 -6 210 8 267 38 52 26 86 64 118 129 l26 55 3 536 3 537 167 5
c186 5 223 14 283 65 71 61 84 98 84 242 0 119 -1 127 -28 173 -15 26 -46 59
-68 74 -78 51 -100 53 -809 52 -360 -1 -664 -3 -675 -6z"/>
<path d="M3171 5964 c-73 -19 -115 -47 -156 -102 -71 -92 -69 -74 -73 -792 -2
-440 1 -665 8 -709 21 -119 84 -205 178 -243 57 -23 59 -23 632 -26 405 -2
593 0 635 8 143 28 202 95 212 240 8 108 -9 169 -58 219 -66 66 -106 71 -534
71 l-365 0 0 79 0 79 253 4 252 3 65 32 c95 47 113 79 118 203 4 81 1 105 -16
143 -45 101 -136 127 -454 127 l-218 0 0 64 0 65 373 3 c419 4 446 8 513 77
85 88 87 289 3 384 -73 84 -52 81 -724 84 -495 2 -599 0 -644 -13z"/>
<path d="M5000 5966 c-67 -19 -102 -40 -144 -86 -47 -52 -73 -113 -87 -199 -6
-43 -9 -292 -7 -692 3 -606 4 -626 25 -686 35 -106 76 -158 148 -194 62 -30
63 -31 206 -27 131 3 149 5 201 30 38 18 67 40 87 69 51 70 61 122 61 315 l0
172 223 4 c177 4 231 8 266 21 104 40 151 106 159 223 6 101 -12 168 -58 214
-65 65 -103 73 -377 78 l-243 4 0 99 c0 73 3 99 13 99 6 0 152 2 322 4 334 3
366 8 446 60 56 38 82 94 87 195 10 187 -42 267 -196 300 -78 16 -1071 14
-1132 -3z"/>
<path d="M7800 5967 c0 -3 12 -12 26 -22 15 -9 23 -12 20 -6 -7 11 -46 35 -46
28z"/>
<path d="M7851 5894 c0 -11 3 -14 6 -6 3 7 2 16 -1 19 -3 4 -6 -2 -5 -13z"/>
<path d="M7851 5854 c0 -11 3 -14 6 -6 3 7 2 16 -1 19 -3 4 -6 -2 -5 -13z"/>
<path d="M7331 5540 c0 -8 4 -22 9 -30 12 -18 12 -2 0 25 -6 13 -9 15 -9 5z"/>
<path d="M7714 5498 l-19 -23 23 19 c21 18 27 26 19 26 -2 0 -12 -10 -23 -22z"/>
<path d="M7377 5459 c7 -7 15 -10 18 -7 3 3 -2 9 -12 12 -14 6 -15 5 -6 -5z"/>
<path d="M7473 5433 c20 -2 54 -2 75 0 20 2 3 4 -38 4 -41 0 -58 -2 -37 -4z"/>
<path d="M4936 3805 c-67 -17 -106 -35 -160 -72 -199 -137 -283 -445 -205
-750 46 -183 179 -326 349 -378 73 -22 237 -30 330 -16 223 33 392 204 436
441 21 107 14 327 -11 410 -43 142 -146 272 -258 328 -130 65 -322 80 -481 37z
m361 -149 c78 -35 144 -103 181 -186 39 -87 52 -152 52 -265 0 -222 -77 -373
-229 -448 -62 -30 -72 -32 -176 -32 -104 0 -114 2 -175 32 -157 77 -234 226
-234 448 0 108 14 179 51 263 25 57 96 140 148 172 93 57 272 65 382 16z"/>
<path d="M7096 3814 c-151 -33 -256 -119 -303 -248 -54 -149 -25 -335 70 -442
28 -32 37 -49 28 -52 -28 -9 -81 -65 -100 -106 -53 -107 4 -237 118 -271 23
-7 20 -9 -28 -27 -68 -26 -135 -90 -150 -143 -20 -71 -14 -155 14 -212 63
-126 212 -177 510 -176 186 1 284 17 373 62 129 65 183 144 190 279 4 63 0 93
-13 129 -25 64 -89 125 -161 154 -55 22 -76 23 -344 28 -259 5 -288 8 -317 25
-63 39 -69 123 -12 182 l31 32 56 -21 c80 -28 245 -35 331 -13 153 39 245 107
298 221 25 55 28 70 28 175 0 123 -10 155 -72 238 l-24 32 115 0 116 0 0 70 0
70 -198 0 c-136 0 -219 5 -267 15 -87 18 -199 18 -289 -1z m287 -145 c21 -7
55 -27 76 -46 108 -92 121 -299 27 -409 -97 -114 -346 -127 -459 -25 -66 60
-82 101 -82 216 0 84 4 107 22 141 38 72 96 114 188 138 33 8 187 -2 228 -15z
m138 -1039 c94 -26 136 -89 124 -183 -13 -92 -89 -146 -238 -166 -218 -30
-443 8 -493 84 -10 15 -19 50 -21 78 -6 84 42 150 133 182 47 17 438 21 495 5z"/>
<path d="M6488 3810 c-154 -26 -275 -117 -310 -232 -6 -21 -15 -38 -20 -38 -4
0 -8 59 -8 130 l0 130 -80 0 -80 0 0 -600 0 -600 80 0 80 0 0 323 c0 357 7
411 60 516 39 78 86 130 148 164 59 32 151 57 209 57 l43 0 0 80 0 80 -37 -1
c-21 -1 -59 -5 -85 -9z"/>
</g>
</svg>
